<?xml version="1.0" encoding="utf-8"?>
<!-- Generator: Adobe Illustrator 23.0.1, SVG Export Plug-In . SVG Version: 6.00 Build 0)  -->
<!DOCTYPE svg PUBLIC "-//W3C//DTD SVG 1.1//EN" "http://www.w3.org/Graphics/SVG/1.1/DTD/svg11.dtd" [
	<!ENTITY ns_extend "http://ns.adobe.com/Extensibility/1.0/">
	<!ENTITY ns_ai "http://ns.adobe.com/AdobeIllustrator/10.0/">
	<!ENTITY ns_graphs "http://ns.adobe.com/Graphs/1.0/">
	<!ENTITY ns_vars "http://ns.adobe.com/Variables/1.0/">
	<!ENTITY ns_imrep "http://ns.adobe.com/ImageReplacement/1.0/">
	<!ENTITY ns_sfw "http://ns.adobe.com/SaveForWeb/1.0/">
	<!ENTITY ns_custom "http://ns.adobe.com/GenericCustomNamespace/1.0/">
	<!ENTITY ns_adobe_xpath "http://ns.adobe.com/XPath/1.0/">
]>
<svg version="1.1"
	 id="svg2" xmlnsX="&ns_extend;" xmlnsI="&ns_ai;" xmlnsGraph="&ns_graphs;" xmlnsSvg="http://www.w3.org/2000/svg"
	 xmlns="http://www.w3.org/2000/svg" xmlnsXlink="http://www.w3.org/1999/xlink" x="0px" y="0px" viewBox="0 0 515.7 257.4"
	 style="enable-background:new 0 0 515.7 257.4;" xml:space="preserve">
<style type="text/css">
	.st0{fill:#007734;}
	.st1{fill:#FFFFFF;}
</style>
<metadata>
	<sfw  xmlns="&ns_sfw;">
		<slices></slices>
		<sliceSourceBounds  bottomLeftOrigin="true" height="257.4" width="515.7" x="-1" y="0"></sliceSourceBounds>
	</sfw>
</metadata>
<g>
	<path class="st0" d="M505.5,78.5c-6.8-15.6-16-29.2-27.6-40.8C466.4,26.2,452.7,17,437,10.2C421.3,3.4,404.6,0,386.8,0H129.1
		c-17.8,0-34.5,3.4-50.2,10.2c-15.7,6.8-29.4,16-41,27.5C26.2,49.3,17,62.9,10.2,78.5C3.4,94.1,0,110.6,0,128
		c0,18,3.4,34.8,10.2,50.5c6.8,15.7,16,29.4,27.7,41c11.7,11.7,25.3,20.9,41,27.7c15.7,6.8,32.4,10.2,50.2,10.2h257.7
		c17.8,0,34.5-3.4,50.2-10.2c15.7-6.8,29.3-16,40.9-27.7c11.6-11.7,20.8-25.3,27.6-41c6.8-15.7,10.2-32.5,10.2-50.5
		C515.7,110.6,512.3,94.1,505.5,78.5z"/>
	<path class="st1" d="M274.3,169.9c7.1-7.3,13.8-15.2,20.1-23.8c6.3-8.6,11.6-17.9,15.9-28c4.3-10,6.4-20.6,6.4-31.7
		c0-13.8-4.1-24.7-12.3-32.9c-8.2-8.1-20.6-12.2-37-12.2c-7.1,0-14.5,0.8-22.2,2.5c-7.7,1.6-15,4.1-21.7,7.3l3.4,27.5
		c3.8-2.7,8.6-5.1,14.4-7.2s12-3.1,18.7-3.1c6.5,0,11.9,2.2,16.3,6.5s6.6,10.2,6.6,17.6c0,13-5.3,27.2-15.9,42.5
		c-10.6,15.3-26.1,33-46.3,53.1v28.4h99v-27.5h-64.3C260.9,183.5,267.3,177.2,274.3,169.9z"/>
	<path class="st1" d="M438,119.1c-4.5-4.8-9.8-8.5-16.1-11s-13.1-3.9-20.5-3.9c-2.9,0-5.7,0.1-8.6,0.3c-2.9,0.2-5.7,0.7-8.6,1.4
		V70.6h59.1V43.9h-88.1v89c9.2-2.9,18.3-4.3,27.2-4.3c11.3,0,20.1,2.8,26.4,8.5c6.3,5.7,9.5,13.1,9.5,22.2c0,10-3,17.8-9,23.5
		c-6,5.7-14.1,8.6-24.3,8.6c-4.8,0-9.5-0.6-14.1-1.7c-4.6-1.1-10.2-3.1-16.9-6l-2,27c11.3,5,23.9,7.4,37.9,7.4
		c9.2,0,17.5-1.5,25.1-4.4c7.6-3,14-7.1,19.5-12.4c5.4-5.3,9.7-11.5,12.8-18.8c3.1-7.3,4.6-15.2,4.6-23.8c0-8.2-1.2-15.7-3.6-22.4
		C446,129.6,442.5,123.9,438,119.1z"/>
	<path class="st1" d="M158.9,128.4c-4.9-3.9-10.2-7.3-16.1-10c-5.8-2.8-11.2-5.5-16.1-8.2c-4.9-2.7-9-5.7-12.3-8.9
		c-3.4-3.2-5-7.4-5-12.6c0-7.1,2.3-12.5,6.9-16.4c4.6-3.8,10.6-5.7,18.1-5.7c5.4,0,10.6,0.6,15.6,1.9c5.1,1.3,10.6,3.2,16.5,5.9
		l0.9-26.7c-6.7-2.1-13.3-3.7-19.7-4.8c-6.4-1-12.6-1.6-18.5-1.6c-8.4,0-16,1.3-22.8,3.7C99.5,47.5,93.7,51,89,55.4
		c-4.8,4.4-8.5,9.6-11,15.6c-2.6,6-3.9,12.6-3.9,19.7c0,9.2,1.6,16.6,4.9,22.4c3.3,5.7,7.4,10.5,12.3,14.2c5,3.7,10.3,6.9,15.9,9.3
		c5.6,2.5,10.9,5.1,15.9,7.7c5,2.7,9.1,5.8,12.3,9.3c3.3,3.5,4.9,8.3,4.9,14.2c0,6.9-2.4,12.4-7.2,16.5c-4.8,4.1-11.3,6.2-19.5,6.2
		c-12.1,0-23.8-3-35.3-9.2l-1.7,29.3c7.3,2.9,14.1,4.8,20.5,5.9c6.4,1.1,12.8,1.6,19.1,1.6c9.2,0,17.5-1.4,25-4.1
		c7.5-2.8,13.8-6.6,18.9-11.3c5.2-4.8,9.1-10.4,11.9-16.8c2.8-6.4,4.2-13.2,4.2-20.5c0-8.8-1.7-16.2-5-22.1
		C167.8,137.3,163.7,132.3,158.9,128.4z"/>
</g>
</svg>
