<?xml version="1.0" encoding="utf-8"?>
<!-- Generator: Adobe Illustrator 23.0.1, SVG Export Plug-In . SVG Version: 6.00 Build 0)  -->
<!DOCTYPE svg PUBLIC "-//W3C//DTD SVG 1.1//EN" "http://www.w3.org/Graphics/SVG/1.1/DTD/svg11.dtd" [
	<!ENTITY ns_extend "http://ns.adobe.com/Extensibility/1.0/">
	<!ENTITY ns_ai "http://ns.adobe.com/AdobeIllustrator/10.0/">
	<!ENTITY ns_graphs "http://ns.adobe.com/Graphs/1.0/">
	<!ENTITY ns_vars "http://ns.adobe.com/Variables/1.0/">
	<!ENTITY ns_imrep "http://ns.adobe.com/ImageReplacement/1.0/">
	<!ENTITY ns_sfw "http://ns.adobe.com/SaveForWeb/1.0/">
	<!ENTITY ns_custom "http://ns.adobe.com/GenericCustomNamespace/1.0/">
	<!ENTITY ns_adobe_xpath "http://ns.adobe.com/XPath/1.0/">
]>
<svg version="1.1"
	 id="svg2" xmlnsX="&ns_extend;" xmlnsI="&ns_ai;" xmlnsGraph="&ns_graphs;" xmlnsSvg="http://www.w3.org/2000/svg"
	 xmlns="http://www.w3.org/2000/svg" xmlnsXlink="http://www.w3.org/1999/xlink" x="0px" y="0px" viewBox="0 0 515.7 257.4"
	 style="enable-background:new 0 0 515.7 257.4;" xml:space="preserve">
<style type="text/css">
	.st0{fill:#CD9C53;}
	.st1{fill:#FFFFFF;}
</style>
<metadata>
	<sfw  xmlns="&ns_sfw;">
		<slices></slices>
		<sliceSourceBounds  bottomLeftOrigin="true" height="257.4" width="515.7" x="-1" y="0"></sliceSourceBounds>
	</sfw>
</metadata>
<g>
	<path class="st0" d="M505.5,78.5c-6.8-15.6-16-29.2-27.6-40.8C466.4,26.2,452.7,17,437,10.2C421.3,3.4,404.6,0,386.8,0H129.1
		c-17.8,0-34.5,3.4-50.2,10.2c-15.7,6.8-29.4,16-41,27.5C26.2,49.3,17,62.9,10.2,78.5C3.4,94.1,0,110.6,0,128
		c0,18,3.4,34.8,10.2,50.5c6.8,15.7,16,29.4,27.7,41c11.7,11.7,25.3,20.9,41,27.7c15.7,6.8,32.4,10.2,50.2,10.2h257.7
		c17.8,0,34.5-3.4,50.2-10.2c15.7-6.8,29.3-16,40.9-27.7c11.6-11.7,20.8-25.3,27.6-41c6.8-15.7,10.2-32.5,10.2-50.5
		C515.7,110.6,512.3,94.1,505.5,78.5z"/>
	<path class="st1" d="M172,185.8c-2.8,6.4-6.8,12-11.9,16.8c-5.2,4.8-11.5,8.6-18.9,11.3c-7.4,2.8-15.8,4.1-25,4.1
		c-6.3,0-12.7-0.5-19.1-1.6c-6.4-1-13.3-3-20.5-5.9l1.7-29.3c11.5,6.1,23.2,9.2,35.3,9.2c8.2,0,14.7-2.1,19.5-6.2s7.2-9.6,7.2-16.5
		c0-5.9-1.6-10.7-4.9-14.2c-3.3-3.5-7.4-6.6-12.3-9.3c-5-2.7-10.3-5.3-15.9-7.7s-10.9-5.6-15.9-9.3c-5-3.7-9.1-8.5-12.3-14.2
		c-3.3-5.7-4.9-13.2-4.9-22.4c0-7.1,1.3-13.6,3.9-19.7c2.6-6,6.3-11.2,11-15.6s10.6-7.8,17.4-10.3c6.8-2.5,14.4-3.7,22.8-3.7
		c5.9,0,12.1,0.5,18.5,1.6c6.4,1.1,13,2.6,19.7,4.8l-0.9,26.7c-5.9-2.7-11.4-4.6-16.5-5.9c-5.1-1.2-10.3-1.9-15.6-1.9
		c-7.4,0-13.5,1.9-18.1,5.7c-4.6,3.8-6.9,9.3-6.9,16.4c0,5.2,1.7,9.4,5,12.6c3.3,3.3,7.4,6.2,12.3,8.9c4.9,2.7,10.2,5.4,16.1,8.2
		c5.8,2.8,11.2,6.1,16.1,10c4.9,3.9,9,8.9,12.3,14.8c3.3,5.9,5,13.3,5,22.1C176.2,172.6,174.8,179.4,172,185.8z"/>
	<path class="st1" d="M240.2,156.7l42.5-80.4v80.4H240.2z M330.9,156.7h-19.8V43.9h-35.6l-59.7,106.5v30.1h65.7v35.9h29.5v-35.9
		h19.8V156.7z"/>
	<path class="st1" d="M453.7,183.4c-2.9,7.5-6.8,13.8-11.6,19.1c-4.9,5.3-10.6,9.3-17.3,12.1c-6.7,2.8-13.9,4.2-21.5,4.2
		c-36.4,0-54.5-24.5-54.5-73.5c0-18.4,1.7-34.1,5.2-47.2c3.4-13.1,8.2-23.8,14.4-32.1c6.1-8.3,13.4-14.5,21.9-18.4
		c8.5-3.9,17.9-5.9,28.3-5.9c5.9,0,11.3,0.4,16.1,1.1s9.7,1.8,14.7,3.1l-2,26.7c-4.4-1.7-8.6-3-12.8-3.9c-4.1-0.9-8.4-1.3-12.8-1.3
		c-6.1,0-11.5,1.2-16.1,3.7c-4.6,2.5-8.5,6-11.7,10.5c-3.3,4.5-5.8,9.7-7.6,15.6c-1.8,5.9-3,12.3-3.6,19.2
		c5.9-7.1,15.7-10.6,29.3-10.6c14.5,0,25.9,4.6,34,13.6c8.1,9.1,12.2,22,12.2,38.9C458,167.6,456.5,175.9,453.7,183.4z M403.7,130.3
		c-6.1,0-11.2,2.9-15.1,8.8c-3.9,5.8-5.9,13.6-5.9,23.4c0,10.1,1.9,17.8,5.7,23.1c3.8,5.3,9.1,7.9,15.8,7.9s11.9-2.9,15.6-8.8
		c3.7-5.8,5.6-13.6,5.6-23.4c0-9.2-1.9-16.7-5.9-22.4C415.8,133.2,410.4,130.3,403.7,130.3z"/>
</g>
</svg>
