<?xml version="1.0" encoding="utf-8"?>
<!-- Generator: Adobe Illustrator 23.0.1, SVG Export Plug-In . SVG Version: 6.00 Build 0)  -->
<!DOCTYPE svg PUBLIC "-//W3C//DTD SVG 1.1//EN" "http://www.w3.org/Graphics/SVG/1.1/DTD/svg11.dtd" [
	<!ENTITY ns_extend "http://ns.adobe.com/Extensibility/1.0/">
	<!ENTITY ns_ai "http://ns.adobe.com/AdobeIllustrator/10.0/">
	<!ENTITY ns_graphs "http://ns.adobe.com/Graphs/1.0/">
	<!ENTITY ns_vars "http://ns.adobe.com/Variables/1.0/">
	<!ENTITY ns_imrep "http://ns.adobe.com/ImageReplacement/1.0/">
	<!ENTITY ns_sfw "http://ns.adobe.com/SaveForWeb/1.0/">
	<!ENTITY ns_custom "http://ns.adobe.com/GenericCustomNamespace/1.0/">
	<!ENTITY ns_adobe_xpath "http://ns.adobe.com/XPath/1.0/">
]>
<svg version="1.1"
	 id="svg2" xmlnsX="&ns_extend;" xmlnsI="&ns_ai;" xmlnsGraph="&ns_graphs;" xmlnsSvg="http://www.w3.org/2000/svg"
	 xmlns="http://www.w3.org/2000/svg" xmlnsXlink="http://www.w3.org/1999/xlink" x="0px" y="0px" viewBox="0 0 515.7 257.4"
	 style="enable-background:new 0 0 515.7 257.4;" xml:space="preserve">
<style type="text/css">
	.st0{fill:#EB7405;}
	.st1{fill:#FFFFFF;}
</style>
<metadata>
	<sfw  xmlns="&ns_sfw;">
		<slices></slices>
		<sliceSourceBounds  bottomLeftOrigin="true" height="257.4" width="515.7" x="-1" y="0"></sliceSourceBounds>
	</sfw>
</metadata>
<g>
	<path class="st0" d="M515.7,128c0,18-3.4,34.8-10.2,50.5c-6.8,15.7-16,29.4-27.5,41c-11.6,11.7-25.2,20.9-40.9,27.7
		c-15.7,6.8-32.4,10.2-50.2,10.2H129.1c-17.8,0-34.5-3.4-50.2-10.2c-15.7-6.8-29.4-16-41-27.7c-11.7-11.7-20.9-25.3-27.7-41
		C3.4,162.8,0,146,0,128c0-17.4,3.4-33.9,10.2-49.5c6.8-15.6,16-29.2,27.7-40.8c11.7-11.6,25.3-20.8,41-27.5
		C94.6,3.4,111.3,0,129.1,0h257.7c17.8,0,34.5,3.4,50.2,10.2c15.7,6.8,29.3,16,40.9,27.5c11.6,11.6,20.7,25.1,27.5,40.8
		C512.3,94.1,515.7,110.6,515.7,128z"/>
	<path class="st1" d="M206.8,125c-6-4.3-12.6-7.8-19.8-10.5c-7.2-2.7-13.8-5.4-19.8-8c-6-2.7-11.1-5.7-15.2-9.2
		c-4.1-3.4-6.2-8-6.2-13.8c0-4.6,0.9-8.5,2.7-11.6c1.8-3.1,4.2-5.6,7-7.4c2.9-1.8,6-3.2,9.5-4c3.4-0.9,6.8-1.3,10-1.3
		c6.7,0,13.6,0.8,20.8,2.3c7.2,1.5,13.1,3.4,17.6,5.7l3.4-30.7c-6.7-2.3-13.8-4-21.4-5.2c-7.6-1.1-15.3-1.7-23.4-1.7
		c-10.1,0-19.3,1.4-27.4,4.2c-8.1,2.8-15.1,6.6-20.8,11.6c-5.7,5-10.1,11-13.2,18.1c-3.1,7.1-4.6,14.9-4.6,23.5
		c0,10.3,2,18.7,6.2,25.2c4.1,6.5,9.2,11.8,15.3,15.9c6.1,4.1,12.8,7.5,19.9,10.2c7.2,2.7,13.8,5.4,19.9,8
		c6.1,2.7,11.2,5.8,15.4,9.3c4.1,3.5,6.2,8.3,6.2,14.2c0,4.2-1.1,7.8-3.3,10.9c-2.2,3-4.9,5.6-8.2,7.4c-3.3,1.9-6.9,3.4-10.9,4.3
		c-4,0.9-7.7,1.4-11.2,1.4c-7.3,0-14.7-0.9-22.4-2.7s-14.4-4.5-20.4-7.9l-3.4,33.9c4.6,1.1,8.7,2.2,12.3,3c3.6,0.9,7.3,1.6,10.9,2.2
		c3.6,0.6,7.4,1,11.5,1.3c4,0.3,8.6,0.4,13.8,0.4c10.3,0,19.8-1.3,28.4-4c8.6-2.7,16-6.5,22.3-11.5c6.2-5,11-11,14.5-17.9
		c3.4-7,5.2-14.9,5.2-23.7c0-10.5-2.1-19.1-6.2-25.7C217.9,134.7,212.8,129.3,206.8,125z"/>
	<path class="st1" d="M387,111.5c-6-4.5-12.6-7.6-19.8-9.3c-7.2-1.7-14-2.6-20.5-2.6c-3.8,0-7.1,0.2-9.9,0.6
		c-2.8,0.4-5.2,0.8-7.3,1.1l1.1-40.2h72.3V33.3H294.4l-1.7,100.4c5.7-1.5,11.4-2.6,16.9-3.3c5.5-0.7,11.2-1,16.9-1
		c5.4,0,10.6,0.5,15.8,1.6c5.2,1.1,9.8,2.8,13.8,5.3c4,2.5,7.2,5.8,9.6,9.9c2.4,4.1,3.6,9.2,3.6,15.3c0,6.1-1.1,11.3-3.4,15.5
		c-2.3,4.2-5.3,7.7-9,10.3c-3.7,2.7-8,4.6-12.8,5.7c-4.8,1.1-9.7,1.7-14.6,1.7c-8.2,0-15.6-1.1-22-3.4s-11.8-4.4-16.2-6.3l-1.4,34.4
		c6.3,1.3,13.5,2.5,21.5,3.3c8,0.9,15.7,1.3,23,1.3c12.1,0,22.6-1.7,31.7-5c9.1-3.3,16.7-7.9,22.8-13.6c6.1-5.7,10.8-12.5,13.9-20.2
		c3.1-7.7,4.7-16.1,4.7-25.1c0-12.3-1.9-22.3-5.7-30.1S393,116,387,111.5z"/>
</g>
</svg>
