<?xml version="1.0" encoding="utf-8"?>
<!-- Generator: Adobe Illustrator 23.0.1, SVG Export Plug-In . SVG Version: 6.00 Build 0)  -->
<!DOCTYPE svg PUBLIC "-//W3C//DTD SVG 1.1//EN" "http://www.w3.org/Graphics/SVG/1.1/DTD/svg11.dtd" [
	<!ENTITY ns_extend "http://ns.adobe.com/Extensibility/1.0/">
	<!ENTITY ns_ai "http://ns.adobe.com/AdobeIllustrator/10.0/">
	<!ENTITY ns_graphs "http://ns.adobe.com/Graphs/1.0/">
	<!ENTITY ns_vars "http://ns.adobe.com/Variables/1.0/">
	<!ENTITY ns_imrep "http://ns.adobe.com/ImageReplacement/1.0/">
	<!ENTITY ns_sfw "http://ns.adobe.com/SaveForWeb/1.0/">
	<!ENTITY ns_custom "http://ns.adobe.com/GenericCustomNamespace/1.0/">
	<!ENTITY ns_adobe_xpath "http://ns.adobe.com/XPath/1.0/">
]>
<svg version="1.1"
	 id="svg2" xmlnsX="&ns_extend;" xmlnsI="&ns_ai;" xmlnsGraph="&ns_graphs;" xmlnsSvg="http://www.w3.org/2000/svg"
	 xmlns="http://www.w3.org/2000/svg" xmlnsXlink="http://www.w3.org/1999/xlink" x="0px" y="0px" viewBox="0 0 515.7 257.4"
	 style="enable-background:new 0 0 515.7 257.4;" xml:space="preserve">
<style type="text/css">
	.st0{fill:#66AA22;}
	.st1{fill:#FFFFFF;}
</style>
<metadata>
	<sfw  xmlns="&ns_sfw;">
		<slices></slices>
		<sliceSourceBounds  bottomLeftOrigin="true" height="257.4" width="515.7" x="-1" y="0"></sliceSourceBounds>
	</sfw>
</metadata>
<g>
	<path class="st0" d="M515.7,128c0,18-3.4,34.8-10.2,50.5c-6.8,15.7-16,29.4-27.5,41c-11.6,11.7-25.2,20.9-40.9,27.7
		c-15.7,6.8-32.4,10.2-50.2,10.2H129.1c-17.8,0-34.5-3.4-50.2-10.2c-15.7-6.8-29.4-16-41-27.7c-11.7-11.7-20.9-25.3-27.7-41
		C3.4,162.8,0,146,0,128c0-17.4,3.4-33.9,10.2-49.5c6.8-15.6,16-29.2,27.7-40.8c11.7-11.6,25.3-20.8,41-27.5
		C94.6,3.4,111.3,0,129.1,0h257.7c17.8,0,34.5,3.4,50.2,10.2c15.7,6.8,29.3,16,40.9,27.5c11.6,11.6,20.7,25.1,27.5,40.8
		C512.3,94.1,515.7,110.6,515.7,128z"/>
	<path class="st1" d="M206.8,125c-6-4.3-12.6-7.8-19.8-10.5c-7.2-2.7-13.8-5.4-19.8-8c-6-2.7-11.1-5.7-15.2-9.2
		c-4.1-3.4-6.2-8-6.2-13.8c0-4.6,0.9-8.5,2.7-11.6c1.8-3.1,4.2-5.6,7-7.4c2.9-1.8,6-3.2,9.5-4c3.4-0.9,6.8-1.3,10-1.3
		c6.7,0,13.6,0.8,20.8,2.3c7.2,1.5,13.1,3.4,17.6,5.7l3.4-30.7c-6.7-2.3-13.8-4-21.4-5.2c-7.6-1.1-15.3-1.7-23.4-1.7
		c-10.1,0-19.3,1.4-27.4,4.2c-8.1,2.8-15.1,6.6-20.8,11.6c-5.7,5-10.1,11-13.2,18.1c-3.1,7.1-4.6,14.9-4.6,23.5
		c0,10.3,2,18.7,6.2,25.2c4.1,6.5,9.2,11.8,15.3,15.9c6.1,4.1,12.8,7.5,19.9,10.2c7.2,2.7,13.8,5.4,19.9,8
		c6.1,2.7,11.2,5.8,15.4,9.3c4.1,3.5,6.2,8.3,6.2,14.2c0,4.2-1.1,7.8-3.3,10.9c-2.2,3-4.9,5.6-8.2,7.4c-3.3,1.9-6.9,3.4-10.9,4.3
		c-4,0.9-7.7,1.4-11.2,1.4c-7.3,0-14.7-0.9-22.4-2.7s-14.4-4.5-20.4-7.9l-3.4,33.9c4.6,1.1,8.7,2.2,12.3,3c3.6,0.9,7.3,1.6,10.9,2.2
		c3.6,0.6,7.4,1,11.5,1.3c4,0.3,8.6,0.4,13.8,0.4c10.3,0,19.8-1.3,28.4-4c8.6-2.7,16-6.5,22.3-11.5c6.2-5,11-11,14.5-17.9
		c3.4-7,5.2-14.9,5.2-23.7c0-10.5-2.1-19.1-6.2-25.7C217.9,134.7,212.8,129.3,206.8,125z"/>
	<path class="st1" d="M375.1,120.2c9.2-3.3,16.8-8.9,23-17.1c6.1-8.1,9.2-17.3,9.2-27.7c0-13.8-5.4-24.7-16.4-32.9
		c-10.9-8.1-25.5-12.2-43.9-12.2c-9.9,0-18.8,1.3-26.7,4c-7.8,2.7-14.5,6.3-20,10.8c-5.4,4.5-9.6,9.7-12.5,15.6
		c-2.9,6-4.3,12.2-4.3,18.7c0,10,2.9,18.7,8.6,26.3s13.3,13.5,22.7,17.9v0.3c-23.1,11.1-34.7,27.4-34.7,49.1c0,8.8,1.7,16.5,5,23
		c3.4,6.5,8,11.9,14.1,16.2s13.1,7.5,21.2,9.6c8.1,2.1,17.1,3.2,26.8,3.2c9.2,0,17.7-1.2,25.5-3.6c7.8-2.4,14.6-5.9,20.4-10.5
		c5.7-4.6,10.2-10.3,13.5-17.1c3.3-6.8,4.9-14.7,4.9-23.7c0-10.9-2.9-20.5-8.8-28.7C396.9,133.3,387.7,126.2,375.1,120.2z
		 M322.6,70.6c1.5-2.9,3.5-5.2,5.9-7c2.4-1.8,5.1-3.2,8.2-4.2c3.1-1,6.1-1.4,9.2-1.4c8,0,14.1,2.2,18.2,6.6s6.2,10.1,6.2,17.2
		c0,5.7-2.1,11-6.2,15.8c-4.1,4.8-9,8.5-14.8,11.2c-3.3-1.1-6.6-2.5-10-4.2c-3.4-1.6-6.5-3.5-9.3-5.7c-2.8-2.2-5.1-4.8-6.9-7.7
		c-1.8-3-2.7-6.5-2.7-10.5C320.3,76.8,321,73.4,322.6,70.6z M365.9,190.3c-5.2,4.4-11.4,6.6-18.7,6.6c-8.4,0-15.3-2.3-20.8-6.9
		c-5.5-4.6-8.2-11.2-8.2-19.8c0-8,2.2-14.4,6.8-19.1c4.5-4.7,10.3-8.9,17.3-12.5c3.8,1.3,7.6,3,11.3,4.9c3.7,1.9,7.1,4.2,10,6.8
		c3,2.6,5.4,5.6,7.2,9.2c1.8,3.5,2.7,7.7,2.7,12.5C373.6,179.7,371.1,185.9,365.9,190.3z"/>
</g>
</svg>
