<?xml version="1.0" encoding="utf-8"?>
<!-- Generator: Adobe Illustrator 23.0.1, SVG Export Plug-In . SVG Version: 6.00 Build 0)  -->
<!DOCTYPE svg PUBLIC "-//W3C//DTD SVG 1.1//EN" "http://www.w3.org/Graphics/SVG/1.1/DTD/svg11.dtd" [
	<!ENTITY ns_extend "http://ns.adobe.com/Extensibility/1.0/">
	<!ENTITY ns_ai "http://ns.adobe.com/AdobeIllustrator/10.0/">
	<!ENTITY ns_graphs "http://ns.adobe.com/Graphs/1.0/">
	<!ENTITY ns_vars "http://ns.adobe.com/Variables/1.0/">
	<!ENTITY ns_imrep "http://ns.adobe.com/ImageReplacement/1.0/">
	<!ENTITY ns_sfw "http://ns.adobe.com/SaveForWeb/1.0/">
	<!ENTITY ns_custom "http://ns.adobe.com/GenericCustomNamespace/1.0/">
	<!ENTITY ns_adobe_xpath "http://ns.adobe.com/XPath/1.0/">
]>
<svg version="1.1"
	 id="svg2" xmlnsX="&ns_extend;" xmlnsI="&ns_ai;" xmlnsGraph="&ns_graphs;" xmlnsSvg="http://www.w3.org/2000/svg"
	 xmlns="http://www.w3.org/2000/svg" xmlnsXlink="http://www.w3.org/1999/xlink" x="0px" y="0px" viewBox="0 0 506.3 300"
	 style="enable-background:new 0 0 506.3 300;" xml:space="preserve">
<style type="text/css">
	.st0{fill:#7DAD4C;}
	.st1{fill:#FFFFFF;}
</style>
<metadata>
	<sfw  xmlns="&ns_sfw;">
		<slices></slices>
		<sliceSourceBounds  bottomLeftOrigin="true" height="300" width="506.3" x="0" y="0"></sliceSourceBounds>
	</sfw>
</metadata>
<g>
	<rect class="st0" width="506.3" height="300"/>
	<path class="st1" d="M249.4,38.4h-44.5v126.8c0,9.3-0.7,17.8-2.3,25.6c-1.6,7.6-4.1,14.3-7.7,19.7c-3.5,5.5-8.2,9.7-14,12.6
		c-5.8,2.9-12.8,4.4-21.1,4.4c-8.5,0-15.6-1.5-21.4-4.4c-5.7-2.9-10.5-7.1-14.2-12.6c-3.7-5.4-6.3-12-7.9-19.7
		c-1.5-7.7-2.3-16.2-2.3-25.6V38.4H70.1v140.2c0,14.6,2.1,27.3,6.1,37.7c4.1,10.4,9.9,19,17.6,25.6c7.7,6.5,17.1,11.4,28.3,14.5
		c11.1,3.1,23.7,4.7,37.7,4.7c14.1,0,26.6-1.6,37.8-4.7c11.1-3.1,20.5-8,28.3-14.5c7.7-6.6,13.5-15.2,17.5-25.6
		c4.1-10.4,6.1-23.1,6.1-37.7V38.4H249.4z"/>
	<polygon class="st1" points="416.6,38.4 377.5,38.4 313.3,89.6 336.4,118.4 372.5,88.9 372.5,257.8 416.6,257.8 	"/>
</g>
</svg>
