<?xml version="1.0" encoding="utf-8"?>
<!-- Generator: Adobe Illustrator 23.0.1, SVG Export Plug-In . SVG Version: 6.00 Build 0)  -->
<!DOCTYPE svg PUBLIC "-//W3C//DTD SVG 1.1//EN" "http://www.w3.org/Graphics/SVG/1.1/DTD/svg11.dtd" [
	<!ENTITY ns_extend "http://ns.adobe.com/Extensibility/1.0/">
	<!ENTITY ns_ai "http://ns.adobe.com/AdobeIllustrator/10.0/">
	<!ENTITY ns_graphs "http://ns.adobe.com/Graphs/1.0/">
	<!ENTITY ns_vars "http://ns.adobe.com/Variables/1.0/">
	<!ENTITY ns_imrep "http://ns.adobe.com/ImageReplacement/1.0/">
	<!ENTITY ns_sfw "http://ns.adobe.com/SaveForWeb/1.0/">
	<!ENTITY ns_custom "http://ns.adobe.com/GenericCustomNamespace/1.0/">
	<!ENTITY ns_adobe_xpath "http://ns.adobe.com/XPath/1.0/">
]>
<svg version="1.1"
	 id="svg3263" xmlnsX="&ns_extend;" xmlnsI="&ns_ai;" xmlnsGraph="&ns_graphs;" xmlnsSvg="http://www.w3.org/2000/svg"
	 xmlns="http://www.w3.org/2000/svg" xmlnsXlink="http://www.w3.org/1999/xlink" x="0px" y="0px" viewBox="0 0 506.7 300"
	 style="enable-background:new 0 0 506.7 300;" xml:space="preserve">
<style type="text/css">
	.st0{fill:#7DAD4C;}
	.st1{fill:#DA421E;}
	.st2{fill:#FFFFFF;}
</style>
<metadata>
	<sfw  xmlns="&ns_sfw;">
		<slices></slices>
		<sliceSourceBounds  bottomLeftOrigin="true" height="300" width="506.7" x="0" y="0"></sliceSourceBounds>
	</sfw>
</metadata>
<g>
	<rect class="st0" width="506.7" height="300"/>
	<polygon class="st1" points="0,299.7 0,300 506.7,300 506.7,0.2 	"/>
	<path class="st2" d="M484.6,221.2h-88.9c8.4-8,17.3-16.4,26.9-25.5c9.5-9,18.4-18.5,26.6-28.4c8.2-10,14.9-20.3,20.3-31.1
		c5.3-10.8,8-21.8,8-33.2c0-18-5.6-32.1-16.8-42.4c-11.2-10.2-27.3-15.4-48.3-15.4c-10.5,0-21,1.1-31.6,3.5
		c-10.6,2.3-20.6,6.2-30,11.6l3.8,34c6.7-4.8,14.1-8.9,22.1-12.1c8.1-3.3,16.5-4.9,25.3-4.9c20.5,0,30.8,9.6,30.8,28.9
		c0,6.7-1.7,13.8-5.2,21.4s-8,15.1-13.5,22.8c-5.5,7.6-11.7,15.1-18.4,22.5c-6.7,7.4-13.2,14.1-19.7,20.3
		c-6.4,6.2-12.3,11.7-17.7,16.5c-5.5,4.8-9.6,8.5-12.3,11V255h138.6L484.6,221.2L484.6,221.2z"/>
	<polygon class="st2" points="309.4,45.5 272.6,45.5 212.3,93.6 234,120.6 267.9,93 267.9,254.2 309.4,254.2 	"/>
	<path class="st2" d="M148.7,45.5v119.1c0,8.8-0.7,16.8-2.2,24s-3.9,13.4-7.2,18.5s-7.8,9.1-13.2,11.8c-5.5,2.7-12,4.1-19.8,4.1
		c-8,0-14.7-1.4-20.1-4.1c-5.5-2.7-9.9-6.6-13.4-11.8c-3.5-5.1-5.9-11.3-7.4-18.5s-2.2-15.2-2.2-24V45.5H22.1v131.7
		c0,13.8,1.9,25.7,5.6,35.5c3.8,9.9,9.3,17.9,16.5,24.1c7.2,6.2,16.1,10.7,26.5,13.7c10.5,2.9,22.3,4.4,35.5,4.4s25-1.5,35.5-4.4
		s19.3-7.5,26.6-13.7c7.2-6.2,12.7-14.2,16.5-24.1c3.8-9.8,5.7-21.7,5.7-35.5V45.5H148.7z"/>
</g>
</svg>
