<?xml version="1.0" encoding="utf-8"?>
<!-- Generator: Adobe Illustrator 23.0.1, SVG Export Plug-In . SVG Version: 6.00 Build 0)  -->
<!DOCTYPE svg PUBLIC "-//W3C//DTD SVG 1.1//EN" "http://www.w3.org/Graphics/SVG/1.1/DTD/svg11.dtd" [
	<!ENTITY ns_extend "http://ns.adobe.com/Extensibility/1.0/">
	<!ENTITY ns_ai "http://ns.adobe.com/AdobeIllustrator/10.0/">
	<!ENTITY ns_graphs "http://ns.adobe.com/Graphs/1.0/">
	<!ENTITY ns_vars "http://ns.adobe.com/Variables/1.0/">
	<!ENTITY ns_imrep "http://ns.adobe.com/ImageReplacement/1.0/">
	<!ENTITY ns_sfw "http://ns.adobe.com/SaveForWeb/1.0/">
	<!ENTITY ns_custom "http://ns.adobe.com/GenericCustomNamespace/1.0/">
	<!ENTITY ns_adobe_xpath "http://ns.adobe.com/XPath/1.0/">
]>
<svg version="1.1"
	 id="svg2" xmlnsX="&ns_extend;" xmlnsI="&ns_ai;" xmlnsGraph="&ns_graphs;" xmlnsSvg="http://www.w3.org/2000/svg"
	 xmlns="http://www.w3.org/2000/svg" xmlnsXlink="http://www.w3.org/1999/xlink" x="0px" y="0px" viewBox="0 0 506.4 300"
	 style="enable-background:new 0 0 506.4 300;" xml:space="preserve">
<style type="text/css">
	.st0{fill:#DA421E;}
	.st1{fill:#FFFFFF;}
</style>
<metadata>
	<sfw  xmlns="&ns_sfw;">
		<slices></slices>
		<sliceSourceBounds  bottomLeftOrigin="true" height="300" width="506.4" x="0" y="0"></sliceSourceBounds>
	</sfw>
</metadata>
<g>
	<rect class="st0" width="506.4" height="300"/>
	<path class="st1" d="M249.6,38.5h-44.5v126.8c0,9.3-0.8,17.8-2.4,25.6c-1.5,7.7-4.1,14.3-7.6,19.7c-3.6,5.4-8.2,9.6-14.1,12.5
		c-5.7,2.9-12.7,4.4-21,4.4c-8.5,0-15.7-1.4-21.4-4.4c-5.8-2.9-10.6-7.1-14.2-12.5c-3.7-5.4-6.4-12-8-19.7
		c-1.5-7.7-2.3-16.2-2.3-25.6V38.5H70.2v140.2c0,14.7,2,27.3,6.1,37.7c4,10.5,9.9,19,17.6,25.6c7.6,6.5,17,11.4,28.2,14.6
		c11.1,3.1,23.8,4.6,37.8,4.6s26.6-1.5,37.7-4.6c11.2-3.2,20.6-8,28.3-14.6s13.5-15.1,17.6-25.6c4-10.4,6.1-23.1,6.1-37.7V38.5z"/>
	<path class="st1" d="M447.9,222.1h-94c8.9-8.5,18.4-17.5,28.6-27.1c10.1-9.6,19.5-19.7,28.3-30.3c8.7-10.5,15.8-21.6,21.6-33.1
		c5.7-11.5,8.5-23.3,8.5-35.3c0-19.2-6.1-34.2-17.9-45.2c-11.9-10.9-29-16.5-51.4-16.5c-11.1,0-22.3,1.4-33.5,3.7
		c-11.3,2.5-22,6.6-32,12.3l4.1,36.2c7.1-5.2,15-9.4,23.6-12.9c8.5-3.4,17.5-5.2,26.8-5.2c21.9,0,32.9,10.3,32.9,30.7
		c0,7.2-1.9,14.7-5.6,22.8c-3.7,8-8.5,16.2-14.4,24.2c-5.9,8.2-12.3,16.2-19.5,24s-14.1,15-20.9,21.6c-6.9,6.6-13.1,12.4-19,17.6
		c-5.8,5.1-10.2,9-13.1,11.7v36.4h146.9V222.1z"/>
</g>
</svg>
