<?xml version="1.0" encoding="utf-8"?>
<!-- Generator: Adobe Illustrator 23.0.1, SVG Export Plug-In . SVG Version: 6.00 Build 0)  -->
<!DOCTYPE svg PUBLIC "-//W3C//DTD SVG 1.1//EN" "http://www.w3.org/Graphics/SVG/1.1/DTD/svg11.dtd" [
	<!ENTITY ns_extend "http://ns.adobe.com/Extensibility/1.0/">
	<!ENTITY ns_ai "http://ns.adobe.com/AdobeIllustrator/10.0/">
	<!ENTITY ns_graphs "http://ns.adobe.com/Graphs/1.0/">
	<!ENTITY ns_vars "http://ns.adobe.com/Variables/1.0/">
	<!ENTITY ns_imrep "http://ns.adobe.com/ImageReplacement/1.0/">
	<!ENTITY ns_sfw "http://ns.adobe.com/SaveForWeb/1.0/">
	<!ENTITY ns_custom "http://ns.adobe.com/GenericCustomNamespace/1.0/">
	<!ENTITY ns_adobe_xpath "http://ns.adobe.com/XPath/1.0/">
]>
<svg version="1.1"
	 id="svg2" xmlnsX="&ns_extend;" xmlnsI="&ns_ai;" xmlnsGraph="&ns_graphs;" xmlnsSvg="http://www.w3.org/2000/svg"
	 xmlns="http://www.w3.org/2000/svg" xmlnsXlink="http://www.w3.org/1999/xlink" x="0px" y="0px" viewBox="0 0 506.4 300"
	 style="enable-background:new 0 0 506.4 300;" xml:space="preserve">
<style type="text/css">
	.st0{fill:#007A5B;}
	.st1{fill:#FFFFFF;}
</style>
<metadata>
	<sfw  xmlns="&ns_sfw;">
		<slices></slices>
		<sliceSourceBounds  bottomLeftOrigin="true" height="300" width="506.4" x="0" y="0"></sliceSourceBounds>
	</sfw>
</metadata>
<g>
	<rect class="st0" width="506.4" height="300"/>
	<path class="st1" d="M257.6,38.4h-44.5v126.7c0,19.1-3.4,34.2-10.2,45.5c-6.8,11.1-18.6,16.9-35.4,16.9c-8.4,0-15.5-1.5-21.3-4.4
		s-10.5-7.1-14.1-12.5c-3.5-5.5-6.1-12.1-7.6-19.8c-1.6-7.6-2.4-16.2-2.4-25.6V38.4H78v140.2c0,14.7,2.1,27.3,6.1,37.7
		c4.2,10.6,10.1,19,17.8,25.6c7.6,6.7,17,11.5,28,14.7c11.1,3.2,23.6,4.6,37.6,4.6c14.1,0,26.7-1.4,37.8-4.6
		c11.2-3.2,20.5-8,28.3-14.7c7.7-6.5,13.6-15,17.7-25.6c4.1-10.4,6.3-23,6.3-37.7V38.4z"/>
	<path class="st1" d="M435.5,196c0-6.5-0.9-12.7-2.5-18.6c-1.8-6-4.2-11.2-7.7-15.9c-3.4-4.7-7.8-8.5-13.1-11.7
		c-5.3-3.2-11.3-5-18.2-5.7v-0.7c5.6-2.2,10.8-4.9,15.8-7.9c4.9-2.9,9.2-6.5,12.8-10.8c3.7-4.1,6.6-9,8.9-14.7
		c2.2-5.6,3.3-12.3,3.3-19.9c0-11.5-2.5-21-7.5-28.3c-5-7.2-11.2-12.9-18.6-16.9s-15.2-6.7-23.6-8.2c-8.4-1.4-15.9-2.1-22.6-2.1
		c-11.6,0-22.5,1-33,2.9c-10.3,1.9-20,4.6-28.8,8.1l2.9,34.5c7.6-4,15.6-6.8,23.9-8.7c8.4-1.8,16.6-2.7,24.9-2.7
		c5.1,0,10,0.5,14.6,1.4c4.5,0.9,8.7,2.4,12.2,4.7c3.6,2.2,6.4,5.1,8.4,8.8c2,3.7,3,8.2,3,13.6c0,9.8-4.5,17.1-13.2,21.9
		s-20.5,7.2-35.2,7.2h-20.8v34.8h21.7c14.3,0,26,2.6,35.1,7.9c9.1,5.3,13.7,14,13.7,26.5c0,5.8-1.6,10.8-4.7,14.6
		c-3.1,3.9-6.9,7.2-11.5,9.7c-4.5,2.5-9.6,4.4-14.9,5.5s-10.4,1.7-15.1,1.7c-8.9,0-17.4-1-25.4-2.9s-15.8-4.4-23.4-7.5l-2.4,37.7
		c8.1,2.3,17.1,4,27.3,5.1c10.1,1.1,20.1,1.6,29.9,1.6c8.9,0,18.3-0.9,28.1-2.8s18.9-5.2,27.1-10c8.3-4.8,15.1-11.4,20.4-19.9
		C432.9,220,435.5,209.1,435.5,196"/>
</g>
</svg>
