<?xml version="1.0" encoding="utf-8"?>
<!-- Generator: Adobe Illustrator 23.0.1, SVG Export Plug-In . SVG Version: 6.00 Build 0)  -->
<!DOCTYPE svg PUBLIC "-//W3C//DTD SVG 1.1//EN" "http://www.w3.org/Graphics/SVG/1.1/DTD/svg11.dtd" [
	<!ENTITY ns_extend "http://ns.adobe.com/Extensibility/1.0/">
	<!ENTITY ns_ai "http://ns.adobe.com/AdobeIllustrator/10.0/">
	<!ENTITY ns_graphs "http://ns.adobe.com/Graphs/1.0/">
	<!ENTITY ns_vars "http://ns.adobe.com/Variables/1.0/">
	<!ENTITY ns_imrep "http://ns.adobe.com/ImageReplacement/1.0/">
	<!ENTITY ns_sfw "http://ns.adobe.com/SaveForWeb/1.0/">
	<!ENTITY ns_custom "http://ns.adobe.com/GenericCustomNamespace/1.0/">
	<!ENTITY ns_adobe_xpath "http://ns.adobe.com/XPath/1.0/">
]>
<svg version="1.1"
	 id="svg2" xmlnsX="&ns_extend;" xmlnsI="&ns_ai;" xmlnsGraph="&ns_graphs;" xmlnsSvg="http://www.w3.org/2000/svg"
	 xmlns="http://www.w3.org/2000/svg" xmlnsXlink="http://www.w3.org/1999/xlink" x="0px" y="0px" viewBox="0 0 506.2 300"
	 style="enable-background:new 0 0 506.2 300;" xml:space="preserve">
<style type="text/css">
	.st0{fill:#F0D722;}
	.st1{fill:#1D1D1B;}
</style>
<metadata>
	<sfw  xmlns="&ns_sfw;">
		<slices></slices>
		<sliceSourceBounds  bottomLeftOrigin="true" height="300" width="506.2" x="0" y="0"></sliceSourceBounds>
	</sfw>
</metadata>
<g>
	<rect class="st0" width="506.2" height="300"/>
	<path class="st1" d="M93.9,241.9c7.6,6.6,17,11.5,28.3,14.6c11.1,3.1,23.6,4.7,37.7,4.7c14,0,26.6-1.6,37.7-4.7
		c11.1-3.2,20.6-8,28.3-14.6c7.7-6.5,13.5-15,17.6-25.6c4-10.4,6-23,6-37.7v-140H205v126.6c0,9.5-0.8,18-2.4,25.6
		c-1.5,7.7-4.1,14.3-7.6,19.7c-3.6,5.4-8.2,9.6-14.1,12.5c-5.7,2.9-12.7,4.4-21,4.4c-8.5,0-15.6-1.4-21.4-4.4
		c-5.8-2.9-10.5-7.1-14.2-12.5c-3.7-5.5-6.4-12-7.9-19.7c-1.5-7.6-2.3-16.2-2.3-25.6V38.5H70.2v140c0,14.7,2,27.3,6,37.7
		C80.3,226.8,86.1,235.4,93.9,241.9z"/>
	<path class="st1" d="M388.9,257.9h41.5v-44.8h28.7V180h-28.7V38.5h-53.9l-82.6,138.4V213h95V257.9z M333.1,179.9l54.5-96.3h1.4
		v96.3H333.1z"/>
</g>
</svg>
