<?xml version="1.0" encoding="utf-8"?>
<!-- Generator: Adobe Illustrator 23.0.1, SVG Export Plug-In . SVG Version: 6.00 Build 0)  -->
<!DOCTYPE svg PUBLIC "-//W3C//DTD SVG 1.1//EN" "http://www.w3.org/Graphics/SVG/1.1/DTD/svg11.dtd" [
	<!ENTITY ns_extend "http://ns.adobe.com/Extensibility/1.0/">
	<!ENTITY ns_ai "http://ns.adobe.com/AdobeIllustrator/10.0/">
	<!ENTITY ns_graphs "http://ns.adobe.com/Graphs/1.0/">
	<!ENTITY ns_vars "http://ns.adobe.com/Variables/1.0/">
	<!ENTITY ns_imrep "http://ns.adobe.com/ImageReplacement/1.0/">
	<!ENTITY ns_sfw "http://ns.adobe.com/SaveForWeb/1.0/">
	<!ENTITY ns_custom "http://ns.adobe.com/GenericCustomNamespace/1.0/">
	<!ENTITY ns_adobe_xpath "http://ns.adobe.com/XPath/1.0/">
]>
<svg version="1.1"
	 id="svg2" xmlnsX="&ns_extend;" xmlnsI="&ns_ai;" xmlnsGraph="&ns_graphs;" xmlnsSvg="http://www.w3.org/2000/svg"
	 xmlns="http://www.w3.org/2000/svg" xmlnsXlink="http://www.w3.org/1999/xlink" x="0px" y="0px" viewBox="0 0 506.3 300"
	 style="enable-background:new 0 0 506.3 300;" xml:space="preserve">
<style type="text/css">
	.st0{fill:#7E5330;}
	.st1{fill:#FFFFFF;}
</style>
<metadata>
	<sfw  xmlns="&ns_sfw;">
		<slices></slices>
		<sliceSourceBounds  bottomLeftOrigin="true" height="300" width="506.3" x="0" y="0"></sliceSourceBounds>
	</sfw>
</metadata>
<g>
	<rect class="st0" width="506.3" height="300"/>
	<path class="st1" d="M93.8,242c7.6,6.5,17.1,11.4,28.3,14.5c11.2,3.2,23.7,4.7,37.8,4.7s26.7-1.5,37.7-4.7
		c11.2-3.1,20.6-8,28.4-14.5c7.7-6.6,13.5-15.1,17.6-25.6c3.9-10.5,6-23.1,6-37.7V38.5H205v126.8c0,9.3-0.8,17.9-2.3,25.6
		c-1.6,7.7-4.1,14.3-7.7,19.8c-3.6,5.4-8.2,9.6-14.1,12.5c-5.7,2.9-12.7,4.4-21,4.4c-8.5,0-15.6-1.4-21.4-4.4
		c-5.8-2.9-10.5-7.1-14.1-12.5c-3.7-5.5-6.4-12-8-19.8c-1.5-7.6-2.3-16.2-2.3-25.6V38.5H70.2v140.2c0,14.7,1.9,27.2,6,37.7
		C80.3,226.9,86.1,235.4,93.8,242z"/>
	<path class="st1" d="M362.2,261.2c14.3,0,26.8-2,37.5-5.9c10.7-3.8,19.7-9.2,26.7-15.8c7.2-6.7,12.6-14.5,16.2-23.4
		c3.5-8.9,5.3-18.5,5.3-28.8c0-14.3-2.2-26-6.7-35.3s-10.1-16.6-17-21.9c-6.9-5.4-14.5-9.2-22.9-11.2c-8.4-2.1-16.5-3.2-24.3-3.2
		c-4.2,0-7.9,0.2-11,0.6c-3.2,0.5-6,1-8.4,1.8l0.7-46.9h84.3V38.5H316.4L314,156.6c12.7-4.3,26-6.4,39.4-6.4
		c6.4,0,12.5,0.6,18.5,1.8c6.1,1.2,11.3,3.3,16,6.4c4.8,2.9,8.5,6.9,11.5,11.9c2.9,4.9,4.3,10.9,4.3,18.1c0,7.1-1.4,13.1-4.1,18
		c-2.9,4.9-6.4,8.9-10.8,12.1c-4.5,3.1-9.5,5.3-15,6.7c-5.4,1.3-10.8,2-16.2,2c-10,0-18.9-1.4-26.5-3.9c-7.7-2.6-14.3-5-19.6-7.5
		l-0.4,39.8c7.2,1.8,15.4,3.1,24.7,4.1S353.7,261.2,362.2,261.2z"/>
</g>
</svg>
