<?xml version="1.0" encoding="utf-8"?>
<!-- Generator: Adobe Illustrator 23.0.1, SVG Export Plug-In . SVG Version: 6.00 Build 0)  -->
<!DOCTYPE svg PUBLIC "-//W3C//DTD SVG 1.1//EN" "http://www.w3.org/Graphics/SVG/1.1/DTD/svg11.dtd" [
	<!ENTITY ns_extend "http://ns.adobe.com/Extensibility/1.0/">
	<!ENTITY ns_ai "http://ns.adobe.com/AdobeIllustrator/10.0/">
	<!ENTITY ns_graphs "http://ns.adobe.com/Graphs/1.0/">
	<!ENTITY ns_vars "http://ns.adobe.com/Variables/1.0/">
	<!ENTITY ns_imrep "http://ns.adobe.com/ImageReplacement/1.0/">
	<!ENTITY ns_sfw "http://ns.adobe.com/SaveForWeb/1.0/">
	<!ENTITY ns_custom "http://ns.adobe.com/GenericCustomNamespace/1.0/">
	<!ENTITY ns_adobe_xpath "http://ns.adobe.com/XPath/1.0/">
]>
<svg version="1.1"
	 id="svg2" xmlnsX="&ns_extend;" xmlnsI="&ns_ai;" xmlnsGraph="&ns_graphs;" xmlnsSvg="http://www.w3.org/2000/svg"
	 xmlns="http://www.w3.org/2000/svg" xmlnsXlink="http://www.w3.org/1999/xlink" x="0px" y="0px" viewBox="0 0 506.4 300"
	 style="enable-background:new 0 0 506.4 300;" xml:space="preserve">
<style type="text/css">
	.st0{fill:#7E5330;}
	.st1{fill:#FFFFFF;}
</style>
<metadata>
	<sfw  xmlns="&ns_sfw;">
		<slices></slices>
		<sliceSourceBounds  bottomLeftOrigin="true" height="300" width="506.4" x="0" y="0"></sliceSourceBounds>
	</sfw>
</metadata>
<g>
	<rect class="st0" width="506.4" height="300"/>
	<path class="st1" d="M431.3,249.3c8.8-3.5,16.4-8.3,22.8-14.5c6.4-6.1,11.3-13.4,14.9-21.9s5.3-17.8,5.3-27.9
		c0-9.6-1.4-18.3-4.2-26.1c-2.7-7.9-6.8-14.6-12-20.2c-5.3-5.6-11.5-9.9-18.7-12.9c-7.2-3-15.2-4.5-24-4.5c-3.3,0-6.6,0.2-10,0.3
		c-3.3,0.2-6.7,0.8-10,1.8V82.2h68.9V51.1H361.5V155c10.7-3.4,21.3-5.1,31.8-5.1c13.2,0,23.4,3.3,30.8,10
		c7.3,6.5,11.1,15.2,11.1,25.9c0,11.6-3.6,20.8-10.6,27.5s-16.5,10-28.3,10c-5.5,0-11.1-0.6-16.4-2c-5.3-1.3-11.9-3.7-19.7-7
		l-2.3,31.5c13.1,5.8,27.9,8.8,44.1,8.8C412.7,254.5,422.5,252.8,431.3,249.3z"/>
	<path class="st1" d="M50.7,237.2c6.4,6.1,14,10.6,22.9,13.5c8.9,2.7,18.6,4.1,29.1,4.1c10.7,0,20.5-1.4,29.3-4.1
		c8.8-2.9,16.3-7.3,22.7-13.5c6.5-6.1,11.4-14,14.9-23.6c3.6-9.6,5.4-21.1,5.4-34.6V51h-39.5v115.4c0,17.4-2.4,31.2-7,41.3
		c-4.8,10.2-13.3,15.2-25.8,15.2c-12.7,0-21.4-5-26.2-15.2c-4.9-10.1-7.2-24-7.2-41.3V51.1H30.4v128c0,13.5,1.8,24.9,5.3,34.6
		C39.3,223.2,44.3,231.1,50.7,237.2z"/>
	<path class="st1" d="M282.5,249.3c8.8-3.5,16.4-8.3,22.8-14.5c6.3-6.1,11.2-13.4,14.8-21.9c3.6-8.5,5.3-17.8,5.3-27.9
		c0-9.6-1.4-18.3-4.1-26.1c-2.8-7.9-6.8-14.6-12.1-20.2c-5.2-5.6-11.5-9.9-18.7-12.9c-7.2-3-15.1-4.5-23.9-4.5
		c-3.3,0-6.7,0.2-10,0.3c-3.3,0.2-6.7,0.8-10,1.8V82.2h69V51.1H212.7V155c10.7-3.4,21.3-5.1,31.7-5.1c13.2,0,23.5,3.3,30.9,10
		c7.3,6.5,11,15.2,11,25.9c0,11.6-3.5,20.8-10.6,27.5c-6.9,6.7-16.4,10-28.2,10c-5.6,0-11.1-0.6-16.4-2c-5.3-1.3-11.9-3.7-19.7-7
		l-2.3,31.5c13.1,5.8,27.9,8.8,44.1,8.8C263.9,254.5,273.6,252.8,282.5,249.3z"/>
</g>
</svg>
