<?xml version="1.0" encoding="utf-8"?>
<!-- Generator: Adobe Illustrator 23.0.1, SVG Export Plug-In . SVG Version: 6.00 Build 0)  -->
<!DOCTYPE svg PUBLIC "-//W3C//DTD SVG 1.1//EN" "http://www.w3.org/Graphics/SVG/1.1/DTD/svg11.dtd" [
	<!ENTITY ns_extend "http://ns.adobe.com/Extensibility/1.0/">
	<!ENTITY ns_ai "http://ns.adobe.com/AdobeIllustrator/10.0/">
	<!ENTITY ns_graphs "http://ns.adobe.com/Graphs/1.0/">
	<!ENTITY ns_vars "http://ns.adobe.com/Variables/1.0/">
	<!ENTITY ns_imrep "http://ns.adobe.com/ImageReplacement/1.0/">
	<!ENTITY ns_sfw "http://ns.adobe.com/SaveForWeb/1.0/">
	<!ENTITY ns_custom "http://ns.adobe.com/GenericCustomNamespace/1.0/">
	<!ENTITY ns_adobe_xpath "http://ns.adobe.com/XPath/1.0/">
]>
<svg version="1.1"
	 id="svg2" xmlnsX="&ns_extend;" xmlnsI="&ns_ai;" xmlnsGraph="&ns_graphs;" xmlnsSvg="http://www.w3.org/2000/svg"
	 xmlns="http://www.w3.org/2000/svg" xmlnsXlink="http://www.w3.org/1999/xlink" x="0px" y="0px" viewBox="0 0 506.4 300"
	 style="enable-background:new 0 0 506.4 300;" xml:space="preserve">
<style type="text/css">
	.st0{fill:#8C6DAB;}
	.st1{fill:#FFFFFF;}
</style>
<metadata>
	<sfw  xmlns="&ns_sfw;">
		<slices></slices>
		<sliceSourceBounds  bottomLeftOrigin="true" height="300" width="506.4" x="0" y="0"></sliceSourceBounds>
	</sfw>
</metadata>
<g>
	<rect class="st0" width="506.4" height="300"/>
	<path class="st1" d="M249.5,38.5H205v126.8c0,9.4-0.7,17.9-2.3,25.6c-1.6,7.7-4.1,14.3-7.7,19.8c-3.5,5.5-8.2,9.6-14,12.6
		c-5.7,2.9-12.8,4.3-21.1,4.3c-8.4,0-15.6-1.4-21.3-4.3c-5.8-2.9-10.6-7.1-14.2-12.6c-3.7-5.5-6.4-12-8-19.8
		c-1.5-7.6-2.3-16.2-2.3-25.6V38.5H70.2v140.2c0,14.7,2.1,27.3,6.1,37.8c4,10.4,9.8,19,17.5,25.6c7.6,6.5,17.1,11.4,28.3,14.5
		c11.1,3.2,23.7,4.8,37.7,4.8c14.1,0,26.7-1.6,37.8-4.8c11.1-3.1,20.5-8,28.2-14.5c7.8-6.6,13.6-15.1,17.7-25.6
		c4-10.5,6-23.1,6-37.8L249.5,38.5L249.5,38.5z"/>
	<path class="st1" d="M451.6,183.3c0-20.9-5.5-37.4-16.4-49.4c-10.9-11.9-26.8-17.8-47.9-17.8c-9.3,0-17.5,1.8-24.5,5.3
		c-7.1,3.6-13.2,9.3-18.6,17.4l-0.3-1c0.2-8,1.4-16.1,3.2-24.3c1.9-8.1,4.9-15.5,8.8-22.1c4.1-6.6,9.3-11.9,15.8-15.9s14.5-6,24.1-6
		c7.3,0,14.2,0.8,20.4,2.3c6.2,1.6,12.3,3.8,18.4,6.8l5-35.8c-7.4-2.7-14.8-4.6-22.3-5.7c-7.4-1.2-15.3-1.8-23.6-1.8
		c-17.8,0-32.7,3.7-44.4,11.2C337.4,54,328,63.6,320.9,75.4c-7,11.9-11.9,25.1-14.8,39.8s-4.4,29.5-4.4,44.2c0,14.5,1.2,28,3.4,40.5
		c2.1,12.5,6,23.3,11.5,32.6c5.4,9.2,12.9,16.6,22.3,21.7c9.6,5.3,21.5,7.9,36.1,7.9c12.7,0,23.8-2,33.4-5.9s17.6-9.3,23.9-16.3
		c6.4-7,11.1-15.4,14.4-24.9C449.9,205.5,451.6,195,451.6,183.3 M406.7,190c0,4.9-0.6,9.7-1.7,14.4c-1.1,4.6-2.9,8.8-5.2,12.5
		c-2.4,3.7-5.3,6.7-8.8,9c-3.6,2.3-8,3.6-13.1,3.6c-5.6,0-10.4-1.2-14.3-3.3c-3.9-2.3-7-5.3-9.5-9.1s-4.2-8.3-5.4-13.4
		c-1-5.2-1.6-10.7-1.6-16.7c0-4.7,0.6-9.2,1.6-13.7c1.2-4.5,2.9-8.5,5.3-12.2c2.3-3.7,5.4-6.7,9.2-8.9c3.7-2.2,8.3-3.3,13.6-3.3
		c5.4,0,10,1.1,13.7,3.3c3.8,2.2,6.8,5.3,9.2,9.2c2.3,3.8,4.1,8.3,5.2,13.2C406.2,179.5,406.7,184.7,406.7,190"/>
</g>
</svg>
