<?xml version="1.0" encoding="utf-8"?>
<!-- Generator: Adobe Illustrator 23.0.1, SVG Export Plug-In . SVG Version: 6.00 Build 0)  -->
<!DOCTYPE svg PUBLIC "-//W3C//DTD SVG 1.1//EN" "http://www.w3.org/Graphics/SVG/1.1/DTD/svg11.dtd" [
	<!ENTITY ns_extend "http://ns.adobe.com/Extensibility/1.0/">
	<!ENTITY ns_ai "http://ns.adobe.com/AdobeIllustrator/10.0/">
	<!ENTITY ns_graphs "http://ns.adobe.com/Graphs/1.0/">
	<!ENTITY ns_vars "http://ns.adobe.com/Variables/1.0/">
	<!ENTITY ns_imrep "http://ns.adobe.com/ImageReplacement/1.0/">
	<!ENTITY ns_sfw "http://ns.adobe.com/SaveForWeb/1.0/">
	<!ENTITY ns_custom "http://ns.adobe.com/GenericCustomNamespace/1.0/">
	<!ENTITY ns_adobe_xpath "http://ns.adobe.com/XPath/1.0/">
]>
<svg version="1.1"
	 id="svg2" xmlnsX="&ns_extend;" xmlnsI="&ns_ai;" xmlnsGraph="&ns_graphs;" xmlnsSvg="http://www.w3.org/2000/svg"
	 xmlns="http://www.w3.org/2000/svg" xmlnsXlink="http://www.w3.org/1999/xlink" x="0px" y="0px" viewBox="0 0 506.4 300"
	 style="enable-background:new 0 0 506.4 300;" xml:space="preserve">
<style type="text/css">
	.st0{fill:#224F86;}
	.st1{fill:#FFFFFF;}
</style>
<metadata>
	<sfw  xmlns="&ns_sfw;">
		<slices></slices>
		<sliceSourceBounds  bottomLeftOrigin="true" height="300" width="506.4" x="0" y="0"></sliceSourceBounds>
	</sfw>
</metadata>
<g>
	<rect class="st0" width="506.4" height="300"/>
	<path class="st1" d="M249.6,38.5h-44.5v126.8c0,9.4-0.8,17.9-2.4,25.6c-1.5,7.7-4.1,14.3-7.6,19.7c-3.5,5.5-8.2,9.6-14,12.5
		c-5.8,3-12.8,4.4-21.1,4.4c-8.4,0-15.6-1.4-21.3-4.4c-5.9-2.9-10.6-7-14.3-12.5c-3.7-5.4-6.3-12-7.9-19.7
		c-1.5-7.6-2.4-16.2-2.4-25.6V38.5H70.2v140.2c0,14.7,2,27.3,6.1,37.8c4.1,10.4,9.9,19,17.6,25.6c7.6,6.5,17,11.4,28.2,14.6
		c11.2,3.1,23.8,4.6,37.8,4.6s26.7-1.5,37.8-4.6c11.1-3.2,20.5-8,28.2-14.6s13.6-15.1,17.6-25.6c4.1-10.5,6.1-23.2,6.1-37.8V38.5z"
		/>
	<path class="st1" d="M452.3,198.4c0-12.7-3.4-23.9-10.2-33.4c-6.8-9.6-17.6-17.8-32.3-24.8c10.7-3.8,19.6-10.4,26.7-19.9
		c7.2-9.5,10.8-20.2,10.8-32.3c0-16.1-6.4-28.8-19-38.3c-12.7-9.5-29.8-14.3-51.2-14.3c-11.6,0-22,1.6-31.1,4.7
		c-9.2,3.1-16.9,7.3-23.2,12.6C316.2,58,311.4,64,308.1,71c-3.4,6.8-5,14.2-5,21.7c0,11.5,3.3,21.8,10,30.6s15.5,15.8,26.4,20.9v0.4
		c-26.9,12.9-40.5,32-40.5,57.2c0,10.2,2,19.2,5.8,26.8c4,7.6,9.5,13.9,16.5,18.9s15.2,8.8,24.7,11.2c9.5,2.5,19.9,3.7,31.4,3.7
		c10.6,0,20.5-1.4,29.7-4.2c9.1-2.7,17-6.8,23.7-12.2c6.7-5.3,11.9-11.9,15.7-19.9C450.4,218.1,452.3,208.8,452.3,198.4
		 M408.2,200.4c0,9.2-3,16.2-9.1,21.4c-6.1,5.1-13.2,7.7-21.7,7.7c-9.9,0-18-2.7-24.4-8s-9.5-13.1-9.5-23.1c0-9.4,2.5-16.8,7.8-22.2
		c5.3-5.5,12-10.4,20.3-14.6c4.4,1.5,8.8,3.4,13.2,5.7c4.3,2.2,8.2,4.9,11.7,7.9c3.4,3,6.2,6.5,8.4,10.7
		C407,189.9,408.2,194.8,408.2,200.4 M404.1,95.3c0,6.7-2.4,12.8-7.2,18.4c-4.8,5.6-10.5,9.9-17.2,13.1c-3.8-1.4-7.7-2.9-11.7-4.9
		c-4.1-1.9-7.7-4.1-10.9-6.7c-3.2-2.5-6-5.6-8-9c-2.1-3.5-3.2-7.6-3.2-12.3c0-4.5,0.9-8.4,2.7-11.7c1.8-3.3,4.1-6.1,6.8-8.2
		c2.8-2.1,6-3.7,9.5-4.8c3.7-1.1,7.2-1.8,10.7-1.8c9.4,0,16.5,2.6,21.3,7.8C401.7,80.4,404.1,87,404.1,95.3"/>
</g>
</svg>
