<?xml version="1.0" encoding="utf-8"?>
<!-- Generator: Adobe Illustrator 23.0.1, SVG Export Plug-In . SVG Version: 6.00 Build 0)  -->
<!DOCTYPE svg PUBLIC "-//W3C//DTD SVG 1.1//EN" "http://www.w3.org/Graphics/SVG/1.1/DTD/svg11.dtd" [
	<!ENTITY ns_extend "http://ns.adobe.com/Extensibility/1.0/">
	<!ENTITY ns_ai "http://ns.adobe.com/AdobeIllustrator/10.0/">
	<!ENTITY ns_graphs "http://ns.adobe.com/Graphs/1.0/">
	<!ENTITY ns_vars "http://ns.adobe.com/Variables/1.0/">
	<!ENTITY ns_imrep "http://ns.adobe.com/ImageReplacement/1.0/">
	<!ENTITY ns_sfw "http://ns.adobe.com/SaveForWeb/1.0/">
	<!ENTITY ns_custom "http://ns.adobe.com/GenericCustomNamespace/1.0/">
	<!ENTITY ns_adobe_xpath "http://ns.adobe.com/XPath/1.0/">
]>
<svg version="1.1"
	 id="svg2" xmlnsX="&ns_extend;" xmlnsI="&ns_ai;" xmlnsGraph="&ns_graphs;" xmlnsSvg="http://www.w3.org/2000/svg"
	 xmlns="http://www.w3.org/2000/svg" xmlnsXlink="http://www.w3.org/1999/xlink" x="0px" y="0px" viewBox="0 0 506.4 300"
	 style="enable-background:new 0 0 506.4 300;" xml:space="preserve">
<style type="text/css">
	.st0{fill:#F3791D;}
	.st1{fill:#FFFFFF;}
</style>
<metadata>
	<sfw  xmlns="&ns_sfw;">
		<slices></slices>
		<sliceSourceBounds  bottomLeftOrigin="true" height="300" width="506.4" x="0" y="0"></sliceSourceBounds>
	</sfw>
</metadata>
<g>
	<rect class="st0" width="506.4" height="300"/>
	<path class="st1" d="M249.9,38.5h-44.5v126.8c0,9.3-0.8,17.8-2.4,25.6c-1.5,7.7-4.1,14.3-7.6,19.7c-3.5,5.5-8.2,9.7-14.1,12.6
		c-5.7,2.9-12.7,4.4-21,4.4c-8.5,0-15.6-1.4-21.4-4.4c-5.8-2.9-10.5-7.1-14.2-12.6c-3.7-5.4-6.3-11.9-7.9-19.7
		c-1.5-7.7-2.4-16.2-2.4-25.6V38.5H70.6v140.2c0,14.7,2.1,27.2,6.1,37.7c4.1,10.5,9.9,19,17.6,25.6c7.6,6.5,17,11.4,28.3,14.5
		c11.1,3.2,23.7,4.7,37.7,4.7s26.6-1.5,37.7-4.7c11.1-3.1,20.6-8,28.3-14.5c7.7-6.6,13.5-15.1,17.6-25.6s6.1-23.1,6.1-37.7V38.5
		H249.9z"/>
	<path class="st1" d="M450.2,136.4c0-12.9-1-25.5-3.1-37.6c-2.2-12.2-5.9-23-11.4-32.5s-13.1-17-22.8-22.9
		c-9.7-5.7-22.1-8.7-37.3-8.7c-12.5,0-23.3,1.9-32.6,5.7c-9.3,3.8-17,9.1-22.9,15.8C314,63,309.6,71.3,306.7,81
		c-2.9,9.6-4.4,20.4-4.4,32.3c0,20.2,5.5,36.5,16.3,48.7c11,12.1,26.8,18.2,47.6,18.2c9.3,0,17.4-1.8,24.4-5.2
		c6.9-3.5,13.1-8.8,18.4-15.9l0.6,0.3c-0.2,8-1.3,16.1-3.2,24.1c-1.8,8-4.9,15.2-8.8,21.7c-4,6.5-9.3,11.7-15.7,15.8
		c-6.5,4.1-14.6,6.2-24.1,6.2c-7.6,0-14.6-0.9-20.9-2.7s-12.1-3.9-17.4-6.4l-5.7,35.1c7.6,3.2,15.1,5.3,22.6,6.8
		c7.4,1.3,15.3,1.9,23.6,1.9c17.6,0,32.3-3.7,44-11.2c11.7-7.5,20.9-17.3,27.7-29.3c6.8-12,11.6-25.5,14.4-40.5
		C448.8,166.3,450.2,151.4,450.2,136.4 M406.4,106c0,5.3-0.6,10.5-1.7,15.5s-2.9,9.5-5.2,13.2c-2.3,3.8-5.4,6.8-9.2,9.1
		c-3.8,2.2-8.2,3.3-13.4,3.3c-5.3,0-10-1.1-14-3.3s-7.2-5.3-9.6-9.1c-2.5-3.7-4.4-8-5.6-12.8s-1.8-9.9-1.8-15.2
		c0-4.9,0.6-9.8,1.8-14.6c1.2-4.8,3.1-9.1,5.6-12.7c2.4-3.7,5.5-6.6,9.2-9s8.1-3.5,13.2-3.5c5.3,0,10,1,13.9,3.1
		c3.9,2.2,7.2,5.1,9.7,8.8c2.5,3.7,4.4,7.9,5.5,12.5C405.8,96,406.4,100.9,406.4,106"/>
</g>
</svg>
